<?xml version="1.0" encoding="UTF-8" standalone="no"?>
<svg width="94px" height="26px" viewBox="0 0 94 26" version="1.1" xmlns="http://www.w3.org/2000/svg" xmlns:xlink="http://www.w3.org/1999/xlink">
    <!-- Generator: Sketch 41.2 (35397) - http://www.bohemiancoding.com/sketch -->
    <title>XVlogo_9914</title>
    <desc>Created with Sketch.</desc>
    <defs></defs>
    <g id="Symbols" stroke="none" stroke-width="1" fill="none" fill-rule="evenodd">
        <g id="Base-Header" transform="translate(-75.000000, -17.000000)" fill="#FAFAFA">
            <g id="XVlogo_9914" transform="translate(75.000000, 17.000000)">
                <polygon id="Shape" points="9.85261058 12.0262187 17.3491444 0.3339375 19.2090553 1.45153125 11.2651188 13.729625 18.1825893 23.6153125 15.5172724 23.6153125 9.80872368 15.3603125 9.75061416 15.3603125 2.69416845 25.7440625 0 25.7440625 8.32307061 13.6715312 5.35257719 8.91028125 7.95978455 8.91028125 9.79409471 12.0262187"></polygon>
                <path d="M23.7643537,21.32975 C24.0983818,20.3202187 24.5510671,19.0344375 25.1207842,17.4715937 L27.8929738,9.78371875 L30.1507114,9.78371875 L24.9204486,23.6157187 L22.5798136,23.6157187 L17.3491444,9.78371875 L19.6064756,9.78371875 L22.3587536,17.4715937 C22.9053081,18.9856875 23.3543362,20.271875 23.7054315,21.32975 L23.7643537,21.32975 Z" id="Shape"></path>
                <path d="M39.0357782,22.0142812 C39.7830747,22.0142812 40.4649472,21.95375 41.081802,21.8322812 C41.6982505,21.7108125 42.3122609,21.5385625 42.9242394,21.3155312 L42.9242394,23.1940312 C42.4288863,23.4365625 41.8173141,23.6279062 41.0891165,23.7692812 C40.360919,23.9098437 39.5790818,23.980125 38.7440115,23.980125 C37.7537116,23.980125 36.8239594,23.8537812 35.9551611,23.6015 C35.0863629,23.3492187 34.3337838,22.9413437 33.6986427,22.3782812 C33.0635016,21.815625 32.5657103,21.0803125 32.2056751,20.1723437 C31.8460463,19.2647812 31.6664351,18.17075 31.6664351,16.8890312 C31.6664351,15.627625 31.8403573,14.5327812 32.1894207,13.6057187 C32.5376715,12.6790625 33.0029539,11.90475 33.5844555,11.2831875 C34.1655506,10.6624375 34.8336069,10.1964687 35.5890306,9.8856875 C36.3444543,9.5753125 37.1340122,9.420125 37.9572981,9.420125 C38.7318207,9.420125 39.4559547,9.54890625 40.1288873,9.8060625 C40.8022262,10.0632187 41.3853531,10.46825 41.8798936,11.0215625 C42.3736213,11.574875 42.7633207,12.2886562 43.048992,13.1620937 C43.3350696,14.0359375 43.4777021,15.0840625 43.4777021,16.306875 L43.4777021,16.6054687 C43.4777021,16.6883437 43.4724194,16.8748125 43.4630731,17.1660937 L33.9095437,17.1660937 C33.9095437,18.0496875 34.0428298,18.7992187 34.3098085,19.4155 C34.5767872,20.0321875 34.940886,20.531875 35.4021048,20.9149687 C35.8633237,21.2984687 36.4045956,21.5775625 37.0259204,21.75225 C37.6472452,21.9269375 38.3173333,22.0142812 39.0357782,22.0142812 Z M37.8451427,11.3567187 C37.3237825,11.3567187 36.8398074,11.4586875 36.3924048,11.6622187 C35.9450021,11.8661562 35.5544899,12.1428125 35.2204618,12.4921875 C34.8860273,12.8415625 34.6157978,13.251875 34.4093668,13.7223125 C34.2029358,14.1931562 34.0749323,14.6956875 34.0257627,15.2290937 L41.1037455,15.2290937 C41.1037455,14.6855312 41.0322261,14.1785312 40.89,13.7076875 C40.7473676,13.2368437 40.5389047,12.8269375 40.2633925,12.4771562 C39.9878802,12.1277812 39.6489758,11.8535625 39.2462728,11.6545 C38.8427571,11.45625 38.3758491,11.3567187 37.8451427,11.3567187 Z" id="Shape"></path>
                <path d="M52.8434931,9.420125 C53.5131748,9.420125 54.1544112,9.4908125 54.765577,9.631375 C55.3775556,9.77234375 55.9017603,9.9685625 56.3385976,10.22125 L56.3385976,12.0993438 C55.726619,11.8665625 55.1638101,11.691875 54.6489517,11.574875 C54.1344996,11.4586875 53.6098885,11.4001875 53.0767439,11.4001875 C52.5131222,11.4001875 51.9551896,11.4924063 51.4017269,11.6768438 C50.8482642,11.8612813 50.3529111,12.16475 49.9164802,12.5868438 C49.4796429,13.0093438 49.127735,13.567125 48.8603499,14.2614063 C48.5929649,14.9556875 48.4600851,15.8169375 48.4600851,16.8455625 C48.4600851,17.5930625 48.559237,18.2820625 48.7583535,18.9129688 C48.95747,19.543875 49.2537066,20.089875 49.646657,20.5509688 C50.0404201,21.0120625 50.5329287,21.3715938 51.1254019,21.6283438 C51.7174688,21.8855 52.4021858,22.0142813 53.1787403,22.0142813 C53.7423619,22.0142813 54.3096408,21.95375 54.8826088,21.8322813 C55.4555767,21.7108125 56.0135094,21.5385625 56.5576257,21.3155313 L56.5576257,23.1940313 C56.3922371,23.291125 56.1764598,23.3882188 55.9094811,23.4849063 C55.6420961,23.5824063 55.3482976,23.6673125 55.0280858,23.739625 C54.7078739,23.8123438 54.3677504,23.8708438 54.0085279,23.9143125 C53.6493054,23.9577813 53.2896766,23.9797188 52.9308605,23.9797188 C51.9990765,23.9797188 51.1180875,23.83875 50.2878935,23.557625 C49.4576995,23.2760938 48.7315337,22.84425 48.1106153,22.2620938 C47.4888841,21.6795313 46.9988136,20.9417813 46.6395912,20.0488438 C46.2803687,19.1563125 46.1007575,18.0980313 46.1007575,16.8752188 C46.1007575,15.9627813 46.1954394,15.1425625 46.3848033,14.4145625 C46.5741672,13.6865625 46.8338314,13.0459063 47.1637959,12.493 C47.4937604,11.9396875 47.8798026,11.4688438 48.3215162,11.0804688 C48.7632298,10.6925 49.2342013,10.3744063 49.7344308,10.127 C50.2346603,9.87959375 50.7515505,9.699625 51.2855079,9.5883125 C51.8190589,9.4761875 52.3387936,9.420125 52.8434931,9.420125 Z" id="Shape"></path>
                <path d="M67.27619,23.6449688 C67.0819498,23.7225625 66.7857132,23.7952813 66.3874801,23.863125 C65.9896535,23.9309688 65.5138056,23.9699688 64.960343,23.9797188 C64.231739,23.9797188 63.6006616,23.8899375 63.0671106,23.710375 C62.5331532,23.5312188 62.0890014,23.2736563 61.7346553,22.9389063 C61.3803092,22.60375 61.116175,22.1987188 60.9406274,21.723 C60.7658925,21.2476875 60.678525,20.7183438 60.678525,20.1357813 L60.678525,11.7207188 L58.0132081,11.7207188 L58.0132081,9.784125 L60.678525,9.784125 L60.678525,5.9986875 L62.9358562,5.9986875 L62.9358562,9.784125 L67.0721972,9.784125 L67.0721972,11.7207188 L62.9358562,11.7207188 L62.9358562,19.7864063 C62.9358562,20.1069375 62.9817749,20.4030938 63.074425,20.674875 C63.1670752,20.9466563 63.3121458,21.1822813 63.5112623,21.3809375 C63.7103788,21.5795938 63.9651667,21.7351875 64.2760323,21.8469063 C64.5868979,21.958625 64.9607493,22.0142813 65.3975866,22.0142813 C65.6982932,22.0142813 66.0164732,21.9899063 66.3513141,21.9411563 C66.6861549,21.8928125 66.9945824,21.8298438 67.27619,21.75225 L67.27619,23.6449688 Z" id="Shape"></path>
                <path d="M82.6695226,16.7143437 C82.6695226,17.801875 82.5146993,18.7915 82.2038337,19.6848437 C81.8925618,20.5781875 81.4536927,21.3423437 80.8856011,21.978125 C80.3183222,22.6139062 79.6307606,23.1062812 78.8253546,23.4556562 C78.0191359,23.8050312 77.1162034,23.9797187 76.1165572,23.9797187 C75.0872467,23.9797187 74.1672471,23.8050312 73.3565584,23.4556562 C72.5458697,23.1062812 71.8566827,22.6139062 71.2885911,21.978125 C70.7204995,21.3423437 70.285694,20.5781875 69.9853938,19.6848437 C69.6838745,18.7919062 69.5339276,17.801875 69.5339276,16.7143437 C69.5339276,15.617875 69.6887508,14.6229687 69.9996164,13.729625 C70.3100756,12.8366875 70.7497574,12.0696875 71.3174427,11.4290312 C71.885128,10.788375 72.5751277,10.2935625 73.38541,9.9441875 C74.1960987,9.5948125 75.1014693,9.41971875 76.1019282,9.41971875 C77.1214861,9.41971875 78.0390476,9.59440625 78.8542062,9.9441875 C79.6697712,10.2935625 80.3593646,10.788375 80.9221735,11.4290312 C81.4853888,12.0696875 81.9173498,12.8366875 82.2180563,13.729625 C82.5191693,14.6229687 82.6695226,15.617875 82.6695226,16.7143437 Z M80.3106013,16.7143437 C80.3106013,15.8604062 80.2061668,15.1007187 79.9972976,14.4356875 C79.7884284,13.7710625 79.4974745,13.208 79.1236231,12.7469062 C78.7497716,12.2862187 78.3056199,11.9368437 77.7911678,11.698375 C77.2763094,11.4607187 76.7135004,11.3420937 76.1019282,11.3420937 C75.4903561,11.3420937 74.9267344,11.4607187 74.4126887,11.698375 C73.8978303,11.9364375 73.4536785,12.2858125 73.0802334,12.7469062 C72.706382,13.208 72.4150217,13.7710625 72.2065589,14.4356875 C71.9976897,15.1007187 71.8932552,15.8604062 71.8932552,16.7143437 C71.8932552,17.5589375 71.9980961,18.31375 72.2065589,18.978375 C72.4154281,19.6434062 72.7088202,20.2040312 73.0875479,20.66025 C73.4662757,21.1164687 73.9128656,21.4638125 74.4273177,21.7010625 C74.9421761,21.939125 75.504985,22.05775 76.1169636,22.05775 C76.7285358,22.05775 77.2893129,21.939125 77.7988886,21.7010625 C78.3084644,21.4638125 78.7505843,21.1164687 79.1244358,20.66025 C79.4982872,20.2040312 79.7896475,19.6434062 79.9981103,18.978375 C80.2061668,18.31375 80.3106013,17.5589375 80.3106013,16.7143437 Z" id="Shape"></path>
                <path d="M93.419783,11.61875 L93.2446417,11.61875 C92.7106843,11.61875 92.1864796,11.6675 91.6716212,11.7641875 C91.1571691,11.8612813 90.6744131,12.0095625 90.2233532,12.2082188 C89.771887,12.4072813 89.3639013,12.65225 88.9993962,12.9439375 C88.6352974,13.2352188 88.3317463,13.5797188 88.0891492,13.9774375 L88.0891492,23.6157188 L85.831818,23.6157188 L85.831818,9.78371875 L87.5795735,9.78371875 L88.0168171,11.9823438 L88.0602976,11.9823438 C88.2833894,11.623625 88.5572762,11.2884688 88.8823644,10.9776875 C89.207859,10.6673125 89.5743959,10.3955313 89.9823816,10.1623438 C90.3899609,9.92915625 90.8365509,9.7475625 91.3221514,9.61634375 C91.8069391,9.48553125 92.3173276,9.420125 92.8508786,9.420125 C92.9484051,9.420125 93.047557,9.4225625 93.1499598,9.4274375 C93.2515498,9.4323125 93.3413554,9.439625 93.4193766,9.449375 L93.4193766,11.61875 L93.419783,11.61875 Z" id="Shape"></path>
                <polygon id="Shape" points="19.1842673 1.47184375 17.7124305 1.8143125 17.3662116 0.34165625 18.8380484 0"></polygon>
            </g>
        </g>
    </g>
</svg>